<mxfile host="app.diagrams.net" modified="2024-01-12T17:05:33.888Z" agent="Mozilla/5.0 (Windows NT 10.0; Win64; x64) AppleWebKit/537.36 (KHTML, like Gecko) Chrome/120.0.0.0 Safari/537.36" etag="w2PMLalh79YY9ZcxVk5Y" version="22.1.18" type="device">
  <diagram id="YrfzH3xwVrYN7FTBeiER" name="Page-1">
    <mxGraphModel dx="882" dy="578" grid="1" gridSize="10" guides="1" tooltips="1" connect="1" arrows="1" fold="1" page="1" pageScale="1" pageWidth="850" pageHeight="1100" math="0" shadow="0">
      <root>
        <mxCell id="0" />
        <mxCell id="1" parent="0" />
        <mxCell id="_4GwdmeKuG6IqGC9l_xK-11" style="edgeStyle=orthogonalEdgeStyle;rounded=0;orthogonalLoop=1;jettySize=auto;html=1;exitX=1;exitY=0.5;exitDx=0;exitDy=0;entryX=0;entryY=0.5;entryDx=0;entryDy=0;" edge="1" parent="1" source="_4GwdmeKuG6IqGC9l_xK-1" target="_4GwdmeKuG6IqGC9l_xK-2">
          <mxGeometry relative="1" as="geometry" />
        </mxCell>
        <mxCell id="_4GwdmeKuG6IqGC9l_xK-1" value="Original storage" style="rounded=1;whiteSpace=wrap;html=1;" vertex="1" parent="1">
          <mxGeometry x="40" y="40" width="120" height="60" as="geometry" />
        </mxCell>
        <mxCell id="_4GwdmeKuG6IqGC9l_xK-12" style="edgeStyle=orthogonalEdgeStyle;rounded=0;orthogonalLoop=1;jettySize=auto;html=1;exitX=1;exitY=0.5;exitDx=0;exitDy=0;" edge="1" parent="1" source="_4GwdmeKuG6IqGC9l_xK-2" target="_4GwdmeKuG6IqGC9l_xK-3">
          <mxGeometry relative="1" as="geometry" />
        </mxCell>
        <mxCell id="_4GwdmeKuG6IqGC9l_xK-2" value="Message queue" style="rounded=1;whiteSpace=wrap;html=1;" vertex="1" parent="1">
          <mxGeometry x="240" y="40" width="110" height="60" as="geometry" />
        </mxCell>
        <mxCell id="_4GwdmeKuG6IqGC9l_xK-13" style="edgeStyle=orthogonalEdgeStyle;rounded=0;orthogonalLoop=1;jettySize=auto;html=1;exitX=1;exitY=0.5;exitDx=0;exitDy=0;entryX=0;entryY=0.5;entryDx=0;entryDy=0;" edge="1" parent="1" source="_4GwdmeKuG6IqGC9l_xK-3" target="_4GwdmeKuG6IqGC9l_xK-4">
          <mxGeometry relative="1" as="geometry" />
        </mxCell>
        <mxCell id="_4GwdmeKuG6IqGC9l_xK-3" value="Download module" style="rounded=1;whiteSpace=wrap;html=1;" vertex="1" parent="1">
          <mxGeometry x="440" y="40" width="120" height="60" as="geometry" />
        </mxCell>
        <mxCell id="_4GwdmeKuG6IqGC9l_xK-15" style="edgeStyle=orthogonalEdgeStyle;rounded=0;orthogonalLoop=1;jettySize=auto;html=1;exitX=0.5;exitY=1;exitDx=0;exitDy=0;entryX=0.5;entryY=0;entryDx=0;entryDy=0;" edge="1" parent="1" source="_4GwdmeKuG6IqGC9l_xK-4" target="_4GwdmeKuG6IqGC9l_xK-5">
          <mxGeometry relative="1" as="geometry" />
        </mxCell>
        <mxCell id="_4GwdmeKuG6IqGC9l_xK-4" value="Message queue" style="rounded=1;whiteSpace=wrap;html=1;" vertex="1" parent="1">
          <mxGeometry x="640" y="40" width="120" height="60" as="geometry" />
        </mxCell>
        <mxCell id="_4GwdmeKuG6IqGC9l_xK-16" style="edgeStyle=orthogonalEdgeStyle;rounded=0;orthogonalLoop=1;jettySize=auto;html=1;exitX=1;exitY=0.5;exitDx=0;exitDy=0;entryX=0;entryY=0.5;entryDx=0;entryDy=0;" edge="1" parent="1" source="_4GwdmeKuG6IqGC9l_xK-5" target="_4GwdmeKuG6IqGC9l_xK-6">
          <mxGeometry relative="1" as="geometry" />
        </mxCell>
        <mxCell id="_4GwdmeKuG6IqGC9l_xK-5" value="Encoding module" style="rounded=1;whiteSpace=wrap;html=1;" vertex="1" parent="1">
          <mxGeometry x="40" y="200" width="120" height="60" as="geometry" />
        </mxCell>
        <mxCell id="_4GwdmeKuG6IqGC9l_xK-17" style="edgeStyle=orthogonalEdgeStyle;rounded=0;orthogonalLoop=1;jettySize=auto;html=1;exitX=1;exitY=0.5;exitDx=0;exitDy=0;entryX=0;entryY=0.5;entryDx=0;entryDy=0;" edge="1" parent="1" source="_4GwdmeKuG6IqGC9l_xK-6" target="_4GwdmeKuG6IqGC9l_xK-7">
          <mxGeometry relative="1" as="geometry" />
        </mxCell>
        <mxCell id="_4GwdmeKuG6IqGC9l_xK-6" value="Message queue" style="rounded=1;whiteSpace=wrap;html=1;" vertex="1" parent="1">
          <mxGeometry x="240" y="200" width="120" height="60" as="geometry" />
        </mxCell>
        <mxCell id="_4GwdmeKuG6IqGC9l_xK-18" style="edgeStyle=orthogonalEdgeStyle;rounded=0;orthogonalLoop=1;jettySize=auto;html=1;exitX=1;exitY=0.5;exitDx=0;exitDy=0;entryX=0;entryY=0.5;entryDx=0;entryDy=0;" edge="1" parent="1" source="_4GwdmeKuG6IqGC9l_xK-7" target="_4GwdmeKuG6IqGC9l_xK-8">
          <mxGeometry relative="1" as="geometry" />
        </mxCell>
        <mxCell id="_4GwdmeKuG6IqGC9l_xK-7" value="Upload module" style="rounded=1;whiteSpace=wrap;html=1;" vertex="1" parent="1">
          <mxGeometry x="440" y="200" width="120" height="60" as="geometry" />
        </mxCell>
        <mxCell id="_4GwdmeKuG6IqGC9l_xK-19" style="edgeStyle=orthogonalEdgeStyle;rounded=0;orthogonalLoop=1;jettySize=auto;html=1;exitX=0.5;exitY=1;exitDx=0;exitDy=0;" edge="1" parent="1" source="_4GwdmeKuG6IqGC9l_xK-8" target="_4GwdmeKuG6IqGC9l_xK-9">
          <mxGeometry relative="1" as="geometry" />
        </mxCell>
        <mxCell id="_4GwdmeKuG6IqGC9l_xK-8" value="Message queue" style="rounded=1;whiteSpace=wrap;html=1;" vertex="1" parent="1">
          <mxGeometry x="640" y="200" width="120" height="60" as="geometry" />
        </mxCell>
        <mxCell id="_4GwdmeKuG6IqGC9l_xK-20" style="edgeStyle=orthogonalEdgeStyle;rounded=0;orthogonalLoop=1;jettySize=auto;html=1;exitX=1;exitY=0.5;exitDx=0;exitDy=0;entryX=0;entryY=0.5;entryDx=0;entryDy=0;" edge="1" parent="1" source="_4GwdmeKuG6IqGC9l_xK-9" target="_4GwdmeKuG6IqGC9l_xK-10">
          <mxGeometry relative="1" as="geometry" />
        </mxCell>
        <mxCell id="_4GwdmeKuG6IqGC9l_xK-9" value="Encoded storage" style="rounded=1;whiteSpace=wrap;html=1;" vertex="1" parent="1">
          <mxGeometry x="40" y="360" width="120" height="60" as="geometry" />
        </mxCell>
        <mxCell id="_4GwdmeKuG6IqGC9l_xK-10" value="CDN" style="rounded=1;whiteSpace=wrap;html=1;" vertex="1" parent="1">
          <mxGeometry x="240" y="360" width="120" height="60" as="geometry" />
        </mxCell>
      </root>
    </mxGraphModel>
  </diagram>
</mxfile>
